<?xml version="1.0" encoding="UTF-8" standalone="no"?>
<!-- Created with Inkscape (http://www.inkscape.org/) -->

<svg
   xmlns:dc="http://purl.org/dc/elements/1.1/"
   xmlns:cc="http://creativecommons.org/ns#"
   xmlns:rdf="http://www.w3.org/1999/02/22-rdf-syntax-ns#"
   xmlns:svg="http://www.w3.org/2000/svg"
   xmlns="http://www.w3.org/2000/svg"
   xmlns:sodipodi="http://sodipodi.sourceforge.net/DTD/sodipodi-0.dtd"
   xmlns:inkscape="http://www.inkscape.org/namespaces/inkscape"
   width="818.7851"
   height="320.18378"
   id="svg2"
   version="1.1"
   inkscape:version="0.48.2 r9819"
   sodipodi:docname="clip.svg">
  <defs
     id="defs4">
    <marker
       inkscape:stockid="Arrow2Lend"
       orient="auto"
       refY="0"
       refX="0"
       id="Arrow2Lend"
       style="overflow:visible">
      <path
         id="path3839"
         style="font-size:12px;fill-rule:evenodd;stroke-width:0.625;stroke-linejoin:round"
         d="M 8.7185878,4.0337352 -2.2072895,0.01601326 8.7185884,-4.0017078 c -1.7454984,2.3720609 -1.7354408,5.6174519 -6e-7,8.035443 z"
         transform="matrix(-1.1,0,0,-1.1,-1.1,0)"
         inkscape:connector-curvature="0" />
    </marker>
  </defs>
  <sodipodi:namedview
     id="base"
     pagecolor="#ffffff"
     bordercolor="#666666"
     borderopacity="1.0"
     inkscape:pageopacity="0.0"
     inkscape:pageshadow="2"
     inkscape:zoom="0.9690874"
     inkscape:cx="709.97755"
     inkscape:cy="142.40988"
     inkscape:document-units="px"
     inkscape:current-layer="layer1"
     showgrid="false"
     inkscape:window-width="1600"
     inkscape:window-height="881"
     inkscape:window-x="-4"
     inkscape:window-y="-4"
     inkscape:window-maximized="1"
     fit-margin-top="20"
     fit-margin-left="20"
     fit-margin-right="20"
     fit-margin-bottom="20" />
  <metadata
     id="metadata7">
    <rdf:RDF>
      <cc:Work
         rdf:about="">
        <dc:format>image/svg+xml</dc:format>
        <dc:type
           rdf:resource="http://purl.org/dc/dcmitype/StillImage" />
        <dc:title></dc:title>
      </cc:Work>
    </rdf:RDF>
  </metadata>
  <g
     inkscape:label="Layer 1"
     inkscape:groupmode="layer"
     id="layer1"
     transform="translate(-47.230463,-198.26266)">
    <rect
       style="fill:#ff9955;stroke:#000000;stroke-width:2;stroke-miterlimit:4;stroke-opacity:1;stroke-dasharray:none;stroke-dashoffset:0"
       id="rect3001"
       width="202.25214"
       height="139.30632"
       x="149.38843"
       y="290.70468" />
    <g
       id="g3778">
      <path
         inkscape:connector-curvature="0"
         id="path3766"
         d="m 68.480463,445.06841 c 18.886987,-6.66701 31.937907,-24.90516 52.731817,-27.14042 20.10828,-2.99193 38.38696,-8.55588 54.50807,-18.77859 15.66226,-7.32349 25.45506,-23.70745 43.26946,-27.45908 17.11578,-6.55878 34.49566,-14.56358 44.69416,-30.59178 14.25164,-15.71339 31.30519,-28.66487 43.47737,-46.31634 11.01423,-15.63251 33.57834,-13.85504 43.51883,-31.82667"
         style="fill:none;stroke:#000000;stroke-width:2.5;stroke-linecap:butt;stroke-linejoin:miter;stroke-miterlimit:4;stroke-opacity:1;stroke-dasharray:none" />
      <path
         inkscape:connector-curvature="0"
         id="path3768"
         d="m 236.29522,363.79489 c -5.00237,-27.71838 -17.7613,-56.11563 -9.60277,-84.39041 10.94761,-19.61075 21.78561,-39.07461 31.23113,-59.47367 l 0.94762,-0.41815 0,0.54851"
         style="fill:none;stroke:#000000;stroke-width:2.5;stroke-linecap:butt;stroke-linejoin:miter;stroke-miterlimit:4;stroke-opacity:1;stroke-dasharray:none" />
      <path
         inkscape:connector-curvature="0"
         id="path3770"
         d="m 190.39074,389.381 c 24.12699,-0.0185 47.80449,6.75261 70.17279,15.1262 27.20273,15.98559 60.15145,13.95152 90.57369,14.03331 23.12083,0.94671 38.37037,-18.62575 58.68186,-25.44056 7.00707,-0.2187 13.16848,-2.50163 18.37195,-7.48162"
         style="fill:none;stroke:#000000;stroke-width:2.5;stroke-linecap:butt;stroke-linejoin:miter;stroke-miterlimit:4;stroke-opacity:1;stroke-dasharray:none" />
    </g>
    <path
       style="fill:none;stroke:#000000;stroke-width:3;stroke-linecap:butt;stroke-linejoin:miter;stroke-miterlimit:4;stroke-opacity:1;stroke-dasharray:none;marker-end:url(#Arrow2Lend)"
       d="m 399.67734,347.5408 174.53565,0"
       id="path3813"
       inkscape:connector-curvature="0" />
    <rect
       style="fill:#ff9955;stroke:#000000;stroke-width:2;stroke-miterlimit:4;stroke-opacity:1;stroke-dasharray:none;stroke-dashoffset:0"
       id="rect3001-1"
       width="202.25214"
       height="139.30632"
       x="621.06995"
       y="294.21451" />
    <path
       style="fill:none;stroke:#000000;stroke-width:2.5;stroke-linecap:butt;stroke-linejoin:miter;stroke-miterlimit:4;stroke-opacity:1;stroke-dasharray:none"
       d="m 620.75505,416.27834 c 20.10828,-2.99193 10.5257,-3.39639 26.64681,-13.6191 15.66226,-7.32349 25.45506,-23.70745 43.26946,-27.45908 17.11578,-6.55878 34.49566,-14.56358 44.69416,-30.59178 14.25164,-15.71339 33.36899,-32.79246 45.54117,-50.44393"
       id="path3766-4"
       inkscape:connector-curvature="0"
       sodipodi:nodetypes="ccccc" />
    <path
       style="fill:none;stroke:#000000;stroke-width:2.5;stroke-linecap:butt;stroke-linejoin:miter;stroke-miterlimit:4;stroke-opacity:1;stroke-dasharray:none"
       d="m 707.97673,367.30473 c -5.00237,-27.71838 -19.8251,-43.73284 -11.66657,-72.00762"
       id="path3768-0"
       inkscape:connector-curvature="0"
       sodipodi:nodetypes="cc" />
    <path
       style="fill:none;stroke:#000000;stroke-width:2.5;stroke-linecap:butt;stroke-linejoin:miter;stroke-miterlimit:4;stroke-opacity:1;stroke-dasharray:none"
       d="m 662.07225,392.89084 c 24.12699,-0.0185 47.80449,6.75261 70.17279,15.1262 27.20273,15.98559 60.15145,13.95152 90.57369,14.03331"
       id="path3770-9"
       inkscape:connector-curvature="0"
       sodipodi:nodetypes="ccc" />
  </g>
</svg>
