<?xml version="1.0" encoding="UTF-8" standalone="no"?>
<!-- Created with Inkscape (http://www.inkscape.org/) -->

<svg
   xmlns:dc="http://purl.org/dc/elements/1.1/"
   xmlns:cc="http://creativecommons.org/ns#"
   xmlns:rdf="http://www.w3.org/1999/02/22-rdf-syntax-ns#"
   xmlns:svg="http://www.w3.org/2000/svg"
   xmlns="http://www.w3.org/2000/svg"
   xmlns:sodipodi="http://sodipodi.sourceforge.net/DTD/sodipodi-0.dtd"
   xmlns:inkscape="http://www.inkscape.org/namespaces/inkscape"
   width="744.09448819"
   height="1052.3622047"
   id="svg2"
   version="1.1"
   inkscape:version="0.48.2 r9819"
   sodipodi:docname="snap.svg">
  <defs
     id="defs4">
    <marker
       inkscape:stockid="Arrow1Send"
       orient="auto"
       refY="0.0"
       refX="0.0"
       id="Arrow1Send"
       style="overflow:visible;">
      <path
         id="path3862"
         d="M 0.0,0.0 L 5.0,-5.0 L -12.5,0.0 L 5.0,5.0 L 0.0,0.0 z "
         style="fill-rule:evenodd;stroke:#000000;stroke-width:1.0pt;marker-start:none;"
         transform="scale(0.2) rotate(180) translate(6,0)" />
    </marker>
    <marker
       inkscape:stockid="Arrow1Sstart"
       orient="auto"
       refY="0.0"
       refX="0.0"
       id="Arrow1Sstart"
       style="overflow:visible">
      <path
         id="path3859"
         d="M 0.0,0.0 L 5.0,-5.0 L -12.5,0.0 L 5.0,5.0 L 0.0,0.0 z "
         style="fill-rule:evenodd;stroke:#000000;stroke-width:1.0pt;marker-start:none"
         transform="scale(0.2) translate(6,0)" />
    </marker>
    <marker
       inkscape:stockid="Arrow2Lend"
       orient="auto"
       refY="0.0"
       refX="0.0"
       id="Arrow2Lend"
       style="overflow:visible;">
      <path
         id="path3868"
         style="font-size:12.0;fill-rule:evenodd;stroke-width:0.62500000;stroke-linejoin:round;"
         d="M 8.7185878,4.0337352 L -2.2072895,0.016013256 L 8.7185884,-4.0017078 C 6.9730900,-1.6296469 6.9831476,1.6157441 8.7185878,4.0337352 z "
         transform="scale(1.1) rotate(180) translate(1,0)" />
    </marker>
  </defs>
  <sodipodi:namedview
     id="base"
     pagecolor="#ffffff"
     bordercolor="#666666"
     borderopacity="1.0"
     inkscape:pageopacity="0.0"
     inkscape:pageshadow="2"
     inkscape:zoom="0.7170977"
     inkscape:cx="681.15605"
     inkscape:cy="819.76682"
     inkscape:document-units="px"
     inkscape:current-layer="layer1"
     showgrid="false"
     inkscape:window-width="1600"
     inkscape:window-height="881"
     inkscape:window-x="-4"
     inkscape:window-y="-4"
     inkscape:window-maximized="1" />
  <metadata
     id="metadata7">
    <rdf:RDF>
      <cc:Work
         rdf:about="">
        <dc:format>image/svg+xml</dc:format>
        <dc:type
           rdf:resource="http://purl.org/dc/dcmitype/StillImage" />
        <dc:title></dc:title>
      </cc:Work>
    </rdf:RDF>
  </metadata>
  <g
     inkscape:label="Layer 1"
     inkscape:groupmode="layer"
     id="layer1">
    <path
       sodipodi:type="arc"
       style="fill:#a02c2c;fill-opacity:1;fill-rule:nonzero;stroke:#000000;stroke-width:2.91605562;stroke-miterlimit:4;stroke-opacity:1;stroke-dasharray:none;stroke-dashoffset:0"
       id="path2993"
       sodipodi:cx="60"
       sodipodi:cy="135.93361"
       sodipodi:rx="10"
       sodipodi:ry="9.2857141"
       d="m 70,135.93361 a 10,9.2857141 0 1 1 -20,0 10,9.2857141 0 1 1 20,0 z"
       transform="matrix(0.99136391,0,0,1.0676227,0.51816518,-9.9064606)" />
    <path
       sodipodi:type="arc"
       style="fill:#a02c2c;fill-opacity:1;fill-rule:nonzero;stroke:#000000;stroke-width:2.91605568;stroke-miterlimit:4;stroke-opacity:1;stroke-dasharray:none;stroke-dashoffset:0"
       id="path2993-1"
       sodipodi:cx="60"
       sodipodi:cy="135.93361"
       sodipodi:rx="10"
       sodipodi:ry="9.2857141"
       d="m 70,135.93361 a 10,9.2857141 0 1 1 -20,0 10,9.2857141 0 1 1 20,0 z"
       transform="matrix(0.99136391,0,0,1.0676227,156.23245,-74.192196)" />
    <path
       sodipodi:type="arc"
       style="fill:#a02c2c;fill-opacity:1;fill-rule:nonzero;stroke:#000000;stroke-width:2.91605568;stroke-miterlimit:4;stroke-opacity:1;stroke-dasharray:none;stroke-dashoffset:0"
       id="path2993-7"
       sodipodi:cx="60"
       sodipodi:cy="135.93361"
       sodipodi:rx="10"
       sodipodi:ry="9.2857141"
       d="m 70,135.93361 a 10,9.2857141 0 1 1 -20,0 10,9.2857141 0 1 1 20,0 z"
       transform="matrix(0.99136391,0,0,1.0676227,57.661023,151.52209)" />
    <path
       sodipodi:type="arc"
       style="fill:#a02c2c;fill-opacity:1;fill-rule:nonzero;stroke:#000000;stroke-width:2.91605568;stroke-miterlimit:4;stroke-opacity:1;stroke-dasharray:none;stroke-dashoffset:0"
       id="path2993-4"
       sodipodi:cx="60"
       sodipodi:cy="135.93361"
       sodipodi:rx="10"
       sodipodi:ry="9.2857141"
       d="m 70,135.93361 a 10,9.2857141 0 1 1 -20,0 10,9.2857141 0 1 1 20,0 z"
       transform="matrix(0.99136391,0,0,1.0676227,-18.053263,94.379233)" />
    <path
       sodipodi:type="arc"
       style="fill:#a02c2c;fill-opacity:1;fill-rule:nonzero;stroke:#000000;stroke-width:2.91605568;stroke-miterlimit:4;stroke-opacity:1;stroke-dasharray:none;stroke-dashoffset:0"
       id="path2993-0"
       sodipodi:cx="60"
       sodipodi:cy="135.93361"
       sodipodi:rx="10"
       sodipodi:ry="9.2857141"
       d="m 70,135.93361 a 10,9.2857141 0 1 1 -20,0 10,9.2857141 0 1 1 20,0 z"
       transform="matrix(0.99136391,0,0,1.0676227,216.23245,132.95066)" />
    <path
       sodipodi:type="arc"
       style="fill:#a02c2c;fill-opacity:1;fill-rule:nonzero;stroke:#000000;stroke-width:2.91605568;stroke-miterlimit:4;stroke-opacity:1;stroke-dasharray:none;stroke-dashoffset:0"
       id="path2993-0-2"
       sodipodi:cx="60"
       sodipodi:cy="135.93361"
       sodipodi:rx="10"
       sodipodi:ry="9.2857141"
       d="m 70,135.93361 a 10,9.2857141 0 1 1 -20,0 10,9.2857141 0 1 1 20,0 z"
       transform="matrix(0.99136391,0,0,1.0676227,631.0896,135.80781)" />
    <path
       style="fill:none;stroke:#000000;stroke-width:5;stroke-linecap:butt;stroke-linejoin:miter;stroke-opacity:1;stroke-miterlimit:4;stroke-dasharray:none;marker-end:url(#Arrow2Lend)"
       d="m 368.57143,176.6479 148.57143,0"
       id="path3842"
       inkscape:connector-curvature="0" />
    <path
       style="fill:none;stroke:#000000;stroke-width:3;stroke-linecap:butt;stroke-linejoin:miter;stroke-miterlimit:4;stroke-opacity:1;stroke-dasharray:none;marker-start:url(#Arrow1Sstart);marker-end:url(#Arrow1Send)"
       d="m 637.14286,217.50504 39.99999,48.57143"
       id="path4288"
       inkscape:connector-curvature="0"
       sodipodi:nodetypes="cc" />
    <path
       sodipodi:type="arc"
       style="fill:#030300;fill-opacity:1;fill-rule:nonzero;stroke:#000000;stroke-width:2.91605567999999990;stroke-miterlimit:4;stroke-opacity:1;stroke-dasharray:none;stroke-dashoffset:0"
       id="path2993-0-2-5"
       sodipodi:cx="60"
       sodipodi:cy="135.93361"
       sodipodi:rx="10"
       sodipodi:ry="9.2857141"
       d="m 70,135.93361 a 10,9.2857141 0 1 1 -20,0 10,9.2857141 0 1 1 20,0 z"
       transform="matrix(0.99136391,0,0,1.0676227,561.37531,54.379232)" />
    <path
       sodipodi:type="arc"
       style="fill:#030300;fill-opacity:1;fill-rule:nonzero;stroke:#000000;stroke-width:2.91605568;stroke-miterlimit:4;stroke-opacity:1;stroke-dasharray:none;stroke-dashoffset:0"
       id="path2993-0-2-5-1"
       sodipodi:cx="60"
       sodipodi:cy="135.93361"
       sodipodi:rx="10"
       sodipodi:ry="9.2857141"
       d="m 70,135.93361 a 10,9.2857141 0 1 1 -20,0 10,9.2857141 0 1 1 20,0 z"
       transform="matrix(0.99136391,0,0,1.0676227,157.37531,58.950661)" />
    <path
       style="fill:none;stroke:#000000;stroke-width:1px;stroke-linecap:butt;stroke-linejoin:miter;stroke-opacity:1"
       d="m 712.85714,200.93361 -62.85714,0 45.71429,55.71429"
       id="path4700"
       inkscape:connector-curvature="0"
       sodipodi:nodetypes="ccc" />
    <path
       sodipodi:type="arc"
       style="fill:none;stroke:#000000;stroke-width:1;stroke-miterlimit:4;stroke-opacity:1;stroke-dasharray:none;stroke-dashoffset:0"
       id="path4702"
       sodipodi:cx="649.28571"
       sodipodi:cy="125.93361"
       sodipodi:rx="20.714287"
       sodipodi:ry="20.714285"
       d="m 669.99902,125.73299 a 20.714287,20.714285 0 0 1 -7.93929,16.50724 l -12.77402,-16.30662 z"
       sodipodi:start="6.2735003"
       sodipodi:end="7.1894672"
       transform="matrix(1.7907031,0,0,1.7377092,-510.15305,-16.806097)" />
    <text
       xml:space="preserve"
       style="font-size:40px;font-style:normal;font-weight:normal;line-height:125%;letter-spacing:0px;word-spacing:0px;fill:#000000;fill-opacity:1;stroke:none;font-family:Sans"
       x="692.37427"
       y="235.52788"
       id="text3008"
       sodipodi:linespacing="125%"><tspan
         sodipodi:role="line"
         id="tspan3010"
         x="692.37427"
         y="235.52788"
         style="font-style:oblique;-inkscape-font-specification:Sans Oblique">α</tspan></text>
    <text
       xml:space="preserve"
       style="font-size:40px;font-style:normal;font-weight:normal;line-height:125%;letter-spacing:0px;word-spacing:0px;fill:#000000;fill-opacity:1;stroke:none;font-family:Sans"
       x="620.73132"
       y="264.28964"
       id="text3012"
       sodipodi:linespacing="125%"><tspan
         sodipodi:role="line"
         id="tspan3014"
         x="620.73132"
         y="264.28964"
         style="font-style:oblique;-inkscape-font-specification:Sans Oblique">d</tspan></text>
  </g>
</svg>
